<svg width="32" height="32" viewBox="0 0 32 32" fill="none" xmlns="http://www.w3.org/2000/svg">
<path d="M16 7.66659C16 4.99992 18 2.33325 20.6667 2.33325C20.6667 4.99992 18.6667 7.66659 16 7.66659Z" stroke="white" stroke-width="2" stroke-linejoin="round"/>
<path d="M16.6667 10.7868C15.9801 10.7868 15.4489 10.5687 14.8552 10.325C14.1035 10.0164 13.2517 9.66675 11.8578 9.66675C9.36314 9.66675 5.33334 11.666 5.33334 16.9994C5.33334 23.2022 9.47296 29.6667 12.1396 29.6667C13.0324 29.6667 13.8367 29.3162 14.6053 28.9813C15.3087 28.6746 15.9824 28.381 16.6667 28.381C17.3509 28.381 18.0247 28.6746 18.728 28.9813C19.4967 29.3162 20.3009 29.6667 21.1937 29.6667C23.0505 29.6667 25.2764 26.5323 26.6667 22.5345C24.5057 21.627 23.1173 19.4907 23.1173 17.0001C23.1173 14.8281 24.2715 13.3865 26 12.3334C24.6667 10.3334 22.6845 9.66675 21.2596 9.66675C19.8657 9.66675 19.0139 10.0164 18.2621 10.325C17.6685 10.5687 17.3532 10.7868 16.6667 10.7868Z" stroke="white" stroke-width="2" stroke-linejoin="round"/>
</svg>
