<svg width="56" height="56" viewBox="0 0 56 56" fill="none" xmlns="http://www.w3.org/2000/svg">
<rect x="0.5" y="0.5" width="55" height="55" rx="27.5" fill="white" fill-opacity="0.35"/>
<rect x="0.5" y="0.5" width="55" height="55" rx="27.5" stroke="white"/>
<g filter="url(#filter0_i_132_4030)">
<rect x="6" y="6" width="44" height="44" rx="22" fill="white"/>
<path d="M35.7596 25.5757C36.1048 24.2246 37.3323 23.2227 38.7895 23.2227C40.5136 23.2227 41.9163 24.6253 41.9162 26.3494C41.9162 28.0735 40.5136 29.4762 38.7894 29.4762L27.0116 29.4757C26.5801 29.4757 26.2302 29.1258 26.2302 28.6943C26.2302 28.2627 26.5801 27.9128 27.0117 27.9128H38.7895C39.6515 27.9128 40.3529 27.2115 40.3529 26.3494C40.3529 25.4874 39.6515 24.786 38.7895 24.786C38.1988 24.786 37.6836 25.1153 37.4177 25.6C37.2101 25.9785 36.8761 26.3494 36.4444 26.3494C36.0127 26.3494 35.6527 25.994 35.7596 25.5757Z" fill="#8C3EFF"/>
<path d="M37.226 33.6114C37.226 32.7494 36.5247 32.048 35.6626 32.048H25.4484C25.0167 32.048 24.6667 31.698 24.6667 31.2663C24.6667 30.8346 25.0167 30.4846 25.4484 30.4846H35.6626C37.3867 30.4846 38.7894 31.8873 38.7894 33.6114C38.7894 35.3355 37.3867 36.7382 35.6626 36.7382C34.8286 36.7382 34.0372 36.4158 33.434 35.8306C33.0147 35.4238 32.7243 34.9263 32.5827 34.3847C32.4735 33.967 32.8337 33.6114 33.2654 33.6114C33.6971 33.6114 34.034 33.9833 34.2498 34.3572C34.5284 34.8399 35.0637 35.1748 35.6626 35.1748C36.5247 35.1748 37.226 34.4734 37.226 33.6114Z" fill="#8C3EFF"/>
<path d="M16.5403 30.1514C16.5403 30.1269 16.5403 30.1011 16.5403 30.075C16.5387 30.1007 16.5391 30.1261 16.5403 30.1514ZM16.5403 30.1514C16.5429 30.196 16.5494 30.2402 16.5598 30.2835C16.5496 30.2409 16.5432 30.1973 16.5407 30.1534L16.5403 30.1514Z" fill="#8C3EFF"/>
<path fill-rule="evenodd" clip-rule="evenodd" d="M34.7144 24.6545C34.6665 23.0928 33.9939 21.5918 32.8203 20.4282C31.6466 19.2646 30.1452 18.6029 28.5831 18.5578H28.5799C27.0057 18.5175 25.5297 19.1273 24.4128 20.2531C23.2959 19.1261 21.8195 18.5179 20.2425 18.5582C18.6804 18.6029 17.1754 19.267 16.0049 20.4278C14.8345 21.5886 14.1591 23.0928 14.1132 24.6541V24.6581C14.0359 27.7614 16.1104 30.0138 16.748 30.63L16.7528 30.6344L16.7697 30.6517C18.9549 32.8047 21.0145 34.8708 22.8897 36.7935C23.0869 36.9985 23.3234 37.1616 23.5851 37.273C23.8469 37.3844 24.1284 37.4419 24.4128 37.4419C24.6972 37.4419 24.9787 37.3844 25.2405 37.273C25.5022 37.1616 25.7387 36.9985 25.9359 36.7935C26.8454 35.861 28.4649 34.2467 28.788 33.9013C29.4469 33.1969 28.2945 32.1686 27.3871 33.1397C26.2187 34.3902 25.6564 34.8892 24.8407 35.7269C24.786 35.7858 24.7198 35.8327 24.6462 35.8649C24.5726 35.897 24.4931 35.9136 24.4128 35.9136C24.3325 35.9136 24.253 35.897 24.1794 35.8649C24.1058 35.8327 24.0396 35.7858 23.9849 35.7269C22.1036 33.7949 20.038 31.7244 17.8448 29.5686C17.8307 29.5537 17.8182 29.542 17.8086 29.5328C17.2845 29.0244 15.5791 27.179 15.6383 24.6983C15.6745 23.5311 16.1869 22.3993 17.0808 21.5129C17.9615 20.6391 19.1296 20.1187 20.2823 20.0853C21.6597 20.0503 22.9388 20.7043 23.7929 21.8788C23.8639 21.9767 23.9571 22.0564 24.0649 22.1114C24.1726 22.1663 24.2919 22.1949 24.4128 22.1948C24.5333 22.1949 24.6521 22.1665 24.7595 22.1119C24.867 22.0573 24.96 21.9782 25.031 21.8808C25.886 20.7067 27.1643 20.0527 28.54 20.0873C29.6956 20.1215 30.8629 20.6415 31.7432 21.515C32.6371 22.4005 33.1495 23.5311 33.1873 24.6983C33.2037 25.3849 33.1873 25.5457 33 26.3337C32.8055 27.1518 34.1693 27.3462 34.5104 26.6256C34.738 26.1447 34.7364 25.4638 34.7168 24.6581L34.7144 24.6545ZM16.5403 30.075V30.1514L16.5407 30.1534C16.5432 30.1973 16.5496 30.2409 16.5598 30.2835C16.5494 30.2402 16.5429 30.196 16.5403 30.1514C16.5391 30.1261 16.5387 30.1007 16.5403 30.075Z" fill="#8C3EFF"/>
<path d="M16.5403 30.1514C16.5403 30.1269 16.5403 30.1011 16.5403 30.075M16.5403 30.1514C16.5391 30.1261 16.5387 30.1007 16.5403 30.075M16.5403 30.1514L16.5407 30.1534C16.5432 30.1973 16.5496 30.2409 16.5598 30.2835M16.5403 30.1514V30.075M16.5403 30.1514C16.5429 30.196 16.5494 30.2402 16.5598 30.2835M16.5882 30.376C16.5767 30.3458 16.5673 30.3149 16.5598 30.2835M34.7144 24.6545C34.6665 23.0928 33.9939 21.5918 32.8203 20.4282C31.6466 19.2646 30.1452 18.6029 28.5831 18.5578H28.5799C27.0057 18.5175 25.5297 19.1273 24.4128 20.2531C23.2959 19.1261 21.8195 18.5179 20.2425 18.5582C18.6804 18.6029 17.1754 19.267 16.0049 20.4278C14.8345 21.5886 14.1591 23.0928 14.1132 24.6541V24.6581C14.0359 27.7614 16.1104 30.0138 16.748 30.63L16.7528 30.6344L16.7697 30.6517C18.9549 32.8047 21.0145 34.8708 22.8897 36.7935C23.0869 36.9985 23.3234 37.1616 23.5851 37.273C23.8469 37.3844 24.1284 37.4419 24.4128 37.4419C24.6972 37.4419 24.9787 37.3844 25.2405 37.273C25.5022 37.1616 25.7387 36.9985 25.9359 36.7935C26.8454 35.861 28.4649 34.2467 28.788 33.9013C29.4469 33.1969 28.2945 32.1686 27.3871 33.1397C26.2187 34.3902 25.6564 34.8892 24.8407 35.7269C24.786 35.7858 24.7198 35.8327 24.6462 35.8649C24.5726 35.897 24.4931 35.9136 24.4128 35.9136C24.3325 35.9136 24.253 35.897 24.1794 35.8649C24.1058 35.8327 24.0396 35.7858 23.9849 35.7269C22.1036 33.7949 20.038 31.7244 17.8448 29.5686C17.8307 29.5537 17.8182 29.542 17.8086 29.5328C17.2845 29.0244 15.5791 27.179 15.6383 24.6983C15.6745 23.5311 16.1869 22.3993 17.0808 21.5129C17.9615 20.6391 19.1296 20.1187 20.2823 20.0853C21.6597 20.0503 22.9388 20.7043 23.7929 21.8788C23.8639 21.9767 23.9571 22.0564 24.0649 22.1114C24.1726 22.1663 24.2919 22.1949 24.4128 22.1948C24.5333 22.1949 24.6521 22.1665 24.7595 22.1119C24.867 22.0573 24.96 21.9782 25.031 21.8808C25.886 20.7067 27.1643 20.0527 28.54 20.0873C29.6956 20.1215 30.8629 20.6415 31.7432 21.515C32.6371 22.4005 33.1495 23.5311 33.1873 24.6983C33.2037 25.3849 33.1873 25.5457 33 26.3337C32.8055 27.1518 34.1693 27.3462 34.5104 26.6256C34.738 26.1447 34.7364 25.4638 34.7168 24.6581L34.7144 24.6545Z" stroke="#8C3EFF" stroke-width="0.444444"/>
</g>
<defs>
<filter id="filter0_i_132_4030" x="6" y="6" width="44" height="48" filterUnits="userSpaceOnUse" color-interpolation-filters="sRGB">
<feFlood flood-opacity="0" result="BackgroundImageFix"/>
<feBlend mode="normal" in="SourceGraphic" in2="BackgroundImageFix" result="shape"/>
<feColorMatrix in="SourceAlpha" type="matrix" values="0 0 0 0 0 0 0 0 0 0 0 0 0 0 0 0 0 0 127 0" result="hardAlpha"/>
<feOffset dy="4"/>
<feGaussianBlur stdDeviation="9"/>
<feComposite in2="hardAlpha" operator="arithmetic" k2="-1" k3="1"/>
<feColorMatrix type="matrix" values="0 0 0 0 1 0 0 0 0 1 0 0 0 0 1 0 0 0 0.22 0"/>
<feBlend mode="normal" in2="shape" result="effect1_innerShadow_132_4030"/>
</filter>
</defs>
</svg>
