<svg width="56" height="56" viewBox="0 0 56 56" fill="none" xmlns="http://www.w3.org/2000/svg">
<rect x="0.5" y="0.5" width="55" height="55" rx="27.5" fill="white" fill-opacity="0.35"/>
<rect x="0.5" y="0.5" width="55" height="55" rx="27.5" stroke="white"/>
<g filter="url(#filter0_i_132_4009)">
<rect x="6" y="6" width="44" height="44" rx="22" fill="white"/>
<g clip-path="url(#clip0_132_4009)">
<path d="M29.8093 20.6779C29.1919 19.9991 28.4409 19.4551 27.6033 19.0801C26.7658 18.7052 25.8598 18.5073 24.9422 18.499C24.0246 18.4907 23.1151 18.6721 22.2709 19.0318C21.4267 19.3915 20.6659 19.9217 20.0363 20.5893C19.4067 21.2569 18.9218 22.0473 18.612 22.9111C18.3023 23.7749 18.1743 24.6934 18.2363 25.6089C18.2929 26.4468 18.5075 27.2657 18.8679 28.0227C18.9314 28.156 18.938 28.3103 18.8795 28.4459L18.0693 30.3262C17.9089 30.6982 18.2422 31.0937 18.636 30.9987L20.626 30.5188C20.7698 30.4842 20.9209 30.517 21.0418 30.6024C21.2546 30.7528 21.4774 30.8912 21.7084 31.0169" stroke="#8C3EFF" stroke-width="1.91304" stroke-linecap="round" stroke-linejoin="round"/>
<path d="M31.4523 37.3187C29.9747 37.3185 28.5392 36.8269 27.3717 35.9213C26.2042 35.0156 25.371 33.7474 25.0034 32.3163C24.6357 30.8852 24.7545 29.3725 25.3409 28.0163C25.9274 26.6601 26.9482 25.5374 28.2427 24.8251C29.5372 24.1127 31.0319 23.8511 32.4914 24.0814C33.9509 24.3118 35.2924 25.0209 36.3046 26.0973C37.3168 27.1737 37.9423 28.5562 38.0826 30.0271C38.2155 31.4205 37.9058 32.8182 37.2009 34.0228C37.1263 34.1503 37.1066 34.3034 37.1533 34.4435L37.8007 36.3859C37.9288 36.7702 37.5632 37.1359 37.1788 37.0078L35.2368 36.3604C35.0965 36.3137 34.9432 36.3335 34.8156 36.4083C33.797 37.0056 32.636 37.3207 31.4523 37.3187Z" stroke="#8C3EFF" stroke-width="1.91304" stroke-linecap="round" stroke-linejoin="round"/>
</g>
</g>
<defs>
<filter id="filter0_i_132_4009" x="6" y="6" width="44" height="48" filterUnits="userSpaceOnUse" color-interpolation-filters="sRGB">
<feFlood flood-opacity="0" result="BackgroundImageFix"/>
<feBlend mode="normal" in="SourceGraphic" in2="BackgroundImageFix" result="shape"/>
<feColorMatrix in="SourceAlpha" type="matrix" values="0 0 0 0 0 0 0 0 0 0 0 0 0 0 0 0 0 0 127 0" result="hardAlpha"/>
<feOffset dy="4"/>
<feGaussianBlur stdDeviation="9"/>
<feComposite in2="hardAlpha" operator="arithmetic" k2="-1" k3="1"/>
<feColorMatrix type="matrix" values="0 0 0 0 1 0 0 0 0 1 0 0 0 0 1 0 0 0 0.22 0"/>
<feBlend mode="normal" in2="shape" result="effect1_innerShadow_132_4009"/>
</filter>
<clipPath id="clip0_132_4009">
<rect width="23" height="22" fill="white" transform="translate(16.7002 17)"/>
</clipPath>
</defs>
</svg>
