<svg width="56" height="56" viewBox="0 0 56 56" fill="none" xmlns="http://www.w3.org/2000/svg">
<rect x="0.5" y="0.5" width="55" height="55" rx="27.5" fill="white" fill-opacity="0.35"/>
<rect x="0.5" y="0.5" width="55" height="55" rx="27.5" stroke="white"/>
<g filter="url(#filter0_i_379_6731)">
<rect x="6" y="6" width="44" height="44" rx="22" fill="white"/>
<path d="M35.5 21.5L34.8803 31.5251C34.7219 34.0864 34.6428 35.3671 34.0008 36.2879C33.6833 36.7431 33.2747 37.1273 32.8007 37.416C31.8421 38 30.559 38 27.9927 38C25.4231 38 24.1383 38 23.179 37.4149C22.7048 37.1257 22.296 36.7408 21.9787 36.2848C21.3369 35.3626 21.2594 34.0801 21.1046 31.5152L20.5 21.5" stroke="black" stroke-width="1.5" stroke-linecap="round"/>
<path d="M19 21.5H37M32.0557 21.5L31.3731 20.0917C30.9196 19.1563 30.6928 18.6885 30.3017 18.3968C30.215 18.3321 30.1231 18.2745 30.027 18.2247C29.5939 18 29.0741 18 28.0345 18C26.9688 18 26.436 18 25.9957 18.2341C25.8981 18.286 25.805 18.3459 25.7173 18.4132C25.3216 18.7167 25.1006 19.2015 24.6586 20.1713L24.0529 21.5" stroke="black" stroke-width="1.5" stroke-linecap="round"/>
<path d="M25.5 32.5V26.5" stroke="black" stroke-width="1.5" stroke-linecap="round"/>
<path d="M30.5 32.5V26.5" stroke="black" stroke-width="1.5" stroke-linecap="round"/>
</g>
<defs>
<filter id="filter0_i_379_6731" x="6" y="6" width="44" height="48" filterUnits="userSpaceOnUse" color-interpolation-filters="sRGB">
<feFlood flood-opacity="0" result="BackgroundImageFix"/>
<feBlend mode="normal" in="SourceGraphic" in2="BackgroundImageFix" result="shape"/>
<feColorMatrix in="SourceAlpha" type="matrix" values="0 0 0 0 0 0 0 0 0 0 0 0 0 0 0 0 0 0 127 0" result="hardAlpha"/>
<feOffset dy="4"/>
<feGaussianBlur stdDeviation="9"/>
<feComposite in2="hardAlpha" operator="arithmetic" k2="-1" k3="1"/>
<feColorMatrix type="matrix" values="0 0 0 0 1 0 0 0 0 1 0 0 0 0 1 0 0 0 0.22 0"/>
<feBlend mode="normal" in2="shape" result="effect1_innerShadow_379_6731"/>
</filter>
</defs>
</svg>
