<svg width="56" height="56" viewBox="0 0 56 56" fill="none" xmlns="http://www.w3.org/2000/svg">
<rect x="0.5" y="0.5" width="55" height="55" rx="27.5" fill="white" fill-opacity="0.35"/>
<rect x="0.5" y="0.5" width="55" height="55" rx="27.5" stroke="white"/>
<g filter="url(#filter0_i_132_4037)">
<rect x="6" y="6" width="44" height="44" rx="22" fill="white"/>
<g clip-path="url(#clip0_132_4037)">
<mask id="mask0_132_4037" style="mask-type:luminance" maskUnits="userSpaceOnUse" x="16" y="16" width="25" height="25">
<path d="M16.3334 16.3334H40.3334V40.3334H16.3334V16.3334Z" fill="white"/>
</mask>
<g mask="url(#mask0_132_4037)">
<path d="M29.0865 17.0365C32.4118 17.0365 35.1115 19.7362 35.1115 23.0614C35.1115 26.3868 32.4118 29.0864 29.0865 29.0864C25.7613 29.0864 23.0615 26.3868 23.0615 23.0614C23.0615 19.7362 25.7613 17.0365 29.0865 17.0365Z" stroke="#8F42FF" stroke-width="1.40625" stroke-miterlimit="10" stroke-linecap="round" stroke-linejoin="round"/>
<path d="M39.6302 19.2959L38.1239 20.049" stroke="#8F42FF" stroke-width="1.40625" stroke-miterlimit="10" stroke-linecap="round" stroke-linejoin="round"/>
<path d="M18.5427 19.2959L20.049 20.049" stroke="#8F42FF" stroke-width="1.40625" stroke-miterlimit="10" stroke-linecap="round" stroke-linejoin="round"/>
<path d="M39.6302 26.827L38.1239 26.0739" stroke="#8F42FF" stroke-width="1.40625" stroke-miterlimit="10" stroke-linecap="round" stroke-linejoin="round"/>
<path d="M18.5427 26.827L20.049 26.0739" stroke="#8F42FF" stroke-width="1.40625" stroke-miterlimit="10" stroke-linecap="round" stroke-linejoin="round"/>
<path d="M30.3943 32.0989H25.4723C24.8731 32.0989 24.2984 32.3369 23.8747 32.7607C23.451 33.1844 23.2129 33.7591 23.2129 34.3583H20.8021V38.1239H31.2011C31.883 38.1239 32.537 37.8531 33.0192 37.3709C34.601 35.7891 38.124 32.266 38.124 32.266C36.9476 31.0896 35.0402 31.0896 33.8637 32.2659C32.965 33.1647 32.0028 34.127 31.4592 34.6705C31.1769 34.9529 30.7939 35.1114 30.3947 35.1114H27.8231H30.3943C31.2256 35.1114 31.9006 34.4365 31.9006 33.6052C31.9006 32.7738 31.2256 32.0989 30.3943 32.0989Z" stroke="#8F42FF" stroke-width="1.40625" stroke-miterlimit="10" stroke-linecap="round" stroke-linejoin="round"/>
<path d="M29.8396 20.8021H28.7098C28.0859 20.8021 27.5802 21.3078 27.5802 21.9318C27.5802 22.5557 28.0859 23.0614 28.7098 23.0614H29.463C30.0869 23.0614 30.5927 23.5672 30.5927 24.1912C30.5927 24.815 30.0869 25.3208 29.463 25.3208H28.3333" stroke="#8F42FF" stroke-width="1.40625" stroke-miterlimit="10" stroke-linecap="round" stroke-linejoin="round"/>
<path d="M29.0864 20.8021V20.049" stroke="#8F42FF" stroke-width="1.40625" stroke-miterlimit="10" stroke-linecap="round" stroke-linejoin="round"/>
<path d="M29.0864 26.074V25.3209" stroke="#8F42FF" stroke-width="1.40625" stroke-miterlimit="10" stroke-linecap="round" stroke-linejoin="round"/>
<path d="M17.0365 39.6302H20.8021V32.8521H17.0365V39.6302Z" stroke="#8F42FF" stroke-width="1.40625" stroke-miterlimit="10" stroke-linecap="round" stroke-linejoin="round"/>
</g>
</g>
</g>
<defs>
<filter id="filter0_i_132_4037" x="6" y="6" width="44" height="48" filterUnits="userSpaceOnUse" color-interpolation-filters="sRGB">
<feFlood flood-opacity="0" result="BackgroundImageFix"/>
<feBlend mode="normal" in="SourceGraphic" in2="BackgroundImageFix" result="shape"/>
<feColorMatrix in="SourceAlpha" type="matrix" values="0 0 0 0 0 0 0 0 0 0 0 0 0 0 0 0 0 0 127 0" result="hardAlpha"/>
<feOffset dy="4"/>
<feGaussianBlur stdDeviation="9"/>
<feComposite in2="hardAlpha" operator="arithmetic" k2="-1" k3="1"/>
<feColorMatrix type="matrix" values="0 0 0 0 1 0 0 0 0 1 0 0 0 0 1 0 0 0 0.22 0"/>
<feBlend mode="normal" in2="shape" result="effect1_innerShadow_132_4037"/>
</filter>
<clipPath id="clip0_132_4037">
<rect width="24" height="24" fill="white" transform="translate(16.3334 16.3334)"/>
</clipPath>
</defs>
</svg>
