<svg width="32" height="32" viewBox="0 0 32 32" fill="none" xmlns="http://www.w3.org/2000/svg">
<path d="M27.8774 16.9324C27.3969 18.8941 24.8401 20.3032 19.7263 23.121C14.1645 26.1858 11.3835 27.7183 9.13096 27.1279C8.36806 26.928 7.66539 26.5763 7.07537 26.0992C5.33331 24.691 5.33331 21.767 5.33331 15.9192C5.33331 10.0715 5.33331 7.14768 7.07537 5.73927C7.66539 5.26226 8.36806 4.91068 9.13096 4.71072C11.3835 4.12034 14.1645 5.65273 19.7263 8.71754C24.8401 11.5354 27.3969 12.9443 27.8774 14.9062C28.0408 15.5736 28.0408 16.265 27.8774 16.9324Z" stroke="white" stroke-width="2" stroke-linejoin="round"/>
<path d="M7.39386 26.3471L23.8787 11.1281M7.39386 5.74097L23.8787 20.96" stroke="white" stroke-width="2" stroke-linejoin="round"/>
</svg>
