<svg width="23" height="23" viewBox="0 0 23 23" fill="none" xmlns="http://www.w3.org/2000/svg">
<path d="M22.7431 11.5C22.7457 11.8332 22.6444 12.159 22.4533 12.432C22.2622 12.705 21.9907 12.9117 21.6767 13.0234L15.2336 15.3664L12.8916 21.8085C12.7761 22.1195 12.5683 22.3877 12.2959 22.5771C12.0236 22.7666 11.6998 22.8681 11.3681 22.8681C11.0364 22.8681 10.7126 22.7666 10.4403 22.5771C10.168 22.3877 9.96011 22.1195 9.84468 21.8085L7.50265 15.3654L1.05952 13.0234C0.748536 12.908 0.480325 12.7001 0.290923 12.4278C0.10152 12.1554 0 11.8317 0 11.5C0 11.1682 0.10152 10.8445 0.290923 10.5721C0.480325 10.2998 0.748536 10.0919 1.05952 9.97652L7.50265 7.63449L9.84468 1.19136C9.96011 0.880372 10.168 0.612161 10.4403 0.422759C10.7126 0.233356 11.0364 0.131836 11.3681 0.131836C11.6998 0.131836 12.0236 0.233356 12.2959 0.422759C12.5683 0.612161 12.7761 0.880372 12.8916 1.19136L15.2346 7.63449L21.6767 9.97652C21.9907 10.0882 22.2622 10.2949 22.4533 10.5679C22.6444 10.8409 22.7457 11.1667 22.7431 11.5Z" fill="white"/>
</svg>
