<svg width="56" height="56" viewBox="0 0 56 56" fill="none" xmlns="http://www.w3.org/2000/svg">
<rect x="0.5" y="0.5" width="55" height="55" rx="27.5" fill="white" fill-opacity="0.35"/>
<rect x="0.5" y="0.5" width="55" height="55" rx="27.5" stroke="white"/>
<g filter="url(#filter0_i_132_4023)">
<rect x="6" y="6" width="44" height="44" rx="22" fill="white"/>
<g clip-path="url(#clip0_132_4023)">
<path d="M27.8811 18.7478L27.8896 21.3" stroke="#8C3EFF" stroke-width="2" stroke-linecap="round" stroke-linejoin="round"/>
<path d="M35 22.5L33.657 23.843M33.657 23.843C32.1566 22.3427 30.1217 21.4998 28 21.4998C25.8782 21.4998 23.8433 22.3427 22.343 23.843C20.8426 25.3433 19.9998 27.3782 19.9998 29.5C19.9998 31.6218 20.8426 33.6567 22.343 35.157C23.8433 36.6573 25.8782 37.5002 28 37.5002C30.1217 37.5002 32.1566 36.6573 33.657 35.157C35.1573 33.6567 36.0002 31.6218 36.0002 29.5C36.0002 27.3782 35.1573 25.3433 33.657 23.843ZM25 18.5H31" stroke="#8C3EFF" stroke-width="2" stroke-linecap="round" stroke-linejoin="round"/>
<path d="M33.4009 29.9009C33.4009 29.1916 33.2612 28.4893 32.9898 27.8341C32.7183 27.1788 32.3205 26.5834 31.819 26.0819C31.3175 25.5804 30.7221 25.1825 30.0668 24.9111C29.4116 24.6397 28.7093 24.5 28 24.5V29.9009H33.4009Z" fill="#8C3EFF"/>
</g>
</g>
<defs>
<filter id="filter0_i_132_4023" x="6" y="6" width="44" height="48" filterUnits="userSpaceOnUse" color-interpolation-filters="sRGB">
<feFlood flood-opacity="0" result="BackgroundImageFix"/>
<feBlend mode="normal" in="SourceGraphic" in2="BackgroundImageFix" result="shape"/>
<feColorMatrix in="SourceAlpha" type="matrix" values="0 0 0 0 0 0 0 0 0 0 0 0 0 0 0 0 0 0 127 0" result="hardAlpha"/>
<feOffset dy="4"/>
<feGaussianBlur stdDeviation="9"/>
<feComposite in2="hardAlpha" operator="arithmetic" k2="-1" k3="1"/>
<feColorMatrix type="matrix" values="0 0 0 0 1 0 0 0 0 1 0 0 0 0 1 0 0 0 0.22 0"/>
<feBlend mode="normal" in2="shape" result="effect1_innerShadow_132_4023"/>
</filter>
<clipPath id="clip0_132_4023">
<rect width="18" height="21" fill="white" transform="translate(19 17.5)"/>
</clipPath>
</defs>
</svg>
