<svg width="56" height="56" viewBox="0 0 56 56" fill="none" xmlns="http://www.w3.org/2000/svg">
<rect x="0.5" y="0.5" width="55" height="55" rx="27.5" fill="white" fill-opacity="0.35"/>
<rect x="0.5" y="0.5" width="55" height="55" rx="27.5" stroke="white"/>
<g filter="url(#filter0_i_132_4002)">
<rect x="6" y="6" width="44" height="44" rx="22" fill="white"/>
<g clip-path="url(#clip0_132_4002)">
<path d="M28.4318 34.2637C27.7636 34.5526 26.9589 34.6962 26.0177 34.6947C25.0764 34.6931 24.2707 34.5494 23.6006 34.2637C23.4041 34.1763 23.2126 34.0779 23.027 33.969C22.6223 33.7277 22.2591 33.423 21.9511 33.0664C21.5147 32.5434 21.1934 31.9344 21.0079 31.279C20.9855 31.1988 20.9631 31.1186 20.9454 31.039C20.9407 31.0343 20.9407 31.0296 20.9407 31.0208C20.786 30.384 20.7099 29.7306 20.7143 29.0753C20.7089 28.333 20.8081 27.5935 21.0091 26.8788C21.0188 26.8426 21.0306 26.807 21.0445 26.7721C21.0887 26.5899 21.1376 26.4125 21.1912 26.2344V26.2256C21.2266 26.1077 21.2667 25.9851 21.3092 25.8654C21.3581 25.7186 21.4111 25.5706 21.4689 25.4297C21.5137 25.3118 21.5626 25.1981 21.6116 25.0872C21.6558 24.9894 21.7006 24.8915 21.7495 24.7925C22.0653 24.1273 22.4544 23.4995 22.9097 22.9207C22.9763 22.8317 23.0477 22.7474 23.119 22.6625C23.2168 22.5446 23.3188 22.4267 23.4214 22.3159C23.4703 22.2569 23.5234 22.2051 23.5723 22.1514C23.7327 21.9822 23.8972 21.8225 24.0705 21.6668C24.2927 21.4664 24.5238 21.2754 24.7637 21.0885C24.8276 21.0371 24.8946 20.9897 24.9642 20.9464C25.0261 20.8975 25.0886 20.8533 25.1511 20.8132C25.43 20.6164 25.7208 20.4368 26.0218 20.2756C26.1155 20.2219 26.2134 20.1689 26.3165 20.1199C26.4197 20.071 26.5111 20.0221 26.6113 19.9731C26.8695 19.8552 27.1319 19.742 27.403 19.6442C27.4472 19.6306 27.4921 19.6129 27.5363 19.5994C27.6742 19.5505 27.8074 19.5062 27.9454 19.4662C28.1276 19.4072 28.3144 19.3594 28.5013 19.3146C27.6838 19.1454 26.8508 19.062 26.0159 19.0659C25.1823 19.0597 24.3504 19.1431 23.5346 19.3146C22.9375 19.4347 22.3538 19.6136 21.792 19.8488C21.7248 19.8753 21.6582 19.9077 21.5963 19.9372C20.4823 20.4197 19.475 21.118 18.6321 21.9917C17.7625 22.9028 17.093 23.9857 16.6667 25.1709C16.2161 26.4242 15.9904 27.7471 15.9999 29.0789C15.9904 30.4108 16.2161 31.734 16.6667 32.9874C17.093 34.1726 17.7625 35.2556 18.6321 36.1667C19.4948 37.0734 20.5487 37.7869 21.7937 38.3073C21.7979 38.3073 25.8485 37.7873 29.023 33.9589C28.833 34.0737 28.6355 34.1756 28.4318 34.2637Z" fill="#8C3EFF"/>
<path d="M36.0306 29.0789C36.0402 30.4108 35.8145 31.734 35.3639 32.9874C34.9376 34.1726 34.2681 35.2556 33.3984 36.1667C32.5361 37.0734 31.4823 37.7869 30.2368 38.3072C29.6072 38.5699 28.9515 38.7652 28.2808 38.8897C27.5342 39.0262 26.7766 39.0933 26.0176 39.0901C25.26 39.0933 24.5038 39.0262 23.7586 38.8897C25.633 38.3937 27.3253 37.3694 28.634 35.9387C29.9427 34.5081 30.8125 32.7314 31.14 30.8203C31.2614 30.2489 31.3207 29.666 31.3168 29.0818C31.3233 28.3826 31.235 27.6858 31.0545 27.0103C31.0463 26.9681 31.0359 26.9263 31.0232 26.8853C31.0191 26.8764 31.0191 26.8676 31.0144 26.8587C30.832 26.212 30.5136 25.6117 30.0806 25.0978C29.7492 24.7103 29.3533 24.383 28.9104 24.1304C28.7548 24.0455 28.5944 23.966 28.4299 23.8946C27.7632 23.6099 26.9561 23.4631 26.0158 23.4631C25.0756 23.4631 24.2685 23.6099 23.5988 23.8946C23.4385 23.966 23.2875 24.0414 23.1407 24.1216C23.2298 23.9789 23.3276 23.8416 23.4255 23.7089C23.4962 23.6111 23.5723 23.5179 23.643 23.4248C24.7583 22.0251 26.2547 20.9781 27.9518 20.41C28.7607 20.081 30.2415 19.9472 30.4325 19.9384C31.5471 20.4207 32.5551 21.119 33.3984 21.9928C34.2681 22.904 34.9376 23.9869 35.3639 25.1721C35.8143 26.425 36.04 27.7475 36.0306 29.0789Z" fill="#8C3EFF"/>
<path d="M37.4626 21.9822C38.8639 21.9822 39.9999 20.8462 39.9999 19.4449C39.9999 18.0436 38.8639 16.9076 37.4626 16.9076C36.0613 16.9076 34.9253 18.0436 34.9253 19.4449C34.9253 20.8462 36.0613 21.9822 37.4626 21.9822Z" fill="#8C3EFF"/>
<path d="M25.7329 23.2491C25.7081 23.255 25.6839 23.255 25.6592 23.2609C25.6835 23.2558 25.7081 23.2518 25.7329 23.2491Z" fill="#8C3EFF"/>
</g>
</g>
<defs>
<filter id="filter0_i_132_4002" x="6" y="6" width="44" height="48" filterUnits="userSpaceOnUse" color-interpolation-filters="sRGB">
<feFlood flood-opacity="0" result="BackgroundImageFix"/>
<feBlend mode="normal" in="SourceGraphic" in2="BackgroundImageFix" result="shape"/>
<feColorMatrix in="SourceAlpha" type="matrix" values="0 0 0 0 0 0 0 0 0 0 0 0 0 0 0 0 0 0 127 0" result="hardAlpha"/>
<feOffset dy="4"/>
<feGaussianBlur stdDeviation="9"/>
<feComposite in2="hardAlpha" operator="arithmetic" k2="-1" k3="1"/>
<feColorMatrix type="matrix" values="0 0 0 0 1 0 0 0 0 1 0 0 0 0 1 0 0 0 0.22 0"/>
<feBlend mode="normal" in2="shape" result="effect1_innerShadow_132_4002"/>
</filter>
<clipPath id="clip0_132_4002">
<rect width="24" height="22.1849" fill="white" transform="translate(16 16.9076)"/>
</clipPath>
</defs>
</svg>
